<svg xmlns="http://www.w3.org/2000/svg" enable-background="new 0 0 24 24" viewBox="0 0 24 24" id="django"><path fill="#148449" d="M20.319,6.318L20.319,6.318l-3.616-0.001v7.316c0,3.224-0.164,4.451-0.681,5.51c-0.493,1.035-1.268,1.709-2.865,2.479l3.358,1.636c1.597-0.818,2.372-1.564,2.959-2.743c0.634-1.227,0.845-2.647,0.845-5.606V6.318z"></path><path fill="#148449" d="M14.246,18.104V0.762h-3.643v5.204C10.06,5.813,9.61,5.762,9.019,5.762c-3.809,0-6.269,2.59-6.269,6.577c0,4.139,2.318,6.298,6.766,6.298C11.006,18.637,12.378,18.484,14.246,18.104z M6.464,12.262c0-2.133,1.064-3.352,2.909-3.352H9.37c0.026-0.001,0.051-0.001,0.077-0.001c0.414,0,0.811,0.075,1.157,0.204v6.272c-0.52,0.077-0.851,0.102-1.253,0.102C7.482,15.487,6.464,14.345,6.464,12.262z"></path><rect width="3.897" height="4.026" x="16.511" y=".637" fill="#148449"></rect><path d="M16.482,24.008c-0.112,0-0.226-0.025-0.329-0.076l-3.325-1.625c-0.258-0.126-0.422-0.388-0.421-0.675s0.165-0.549,0.424-0.674c1.422-0.688,2.072-1.239,2.486-2.11c0.462-0.948,0.602-2.15,0.602-5.152V6.427c0-0.414,0.336-0.75,0.75-0.75h3.581c0.414,0,0.75,0.337,0.75,0.751v8.535c0,3.086-0.232,4.579-0.92,5.914c-0.658,1.327-1.572,2.185-3.255,3.048C16.718,23.98,16.6,24.008,16.482,24.008z M14.777,21.589l1.691,0.827c1.183-0.65,1.796-1.256,2.272-2.217c0.568-1.104,0.759-2.422,0.759-5.237V7.178l-2.081-0.001v6.518c0,3.306-0.168,4.608-0.749,5.803C16.268,20.343,15.697,20.987,14.777,21.589z"></path><path d="M9.518 19.021C4.67 19.021 2 16.652 2 12.352c0-4.146 2.821-6.931 7.021-6.931.305 0 .576.013.836.041V.758c0-.414.336-.75.75-.75h3.644c.414 0 .75.336.75.75V17.77c0 .36-.256.669-.609.737C12.48 18.872 11.068 19.021 9.518 19.021zM14.25 17.77h.01H14.25zM9.021 6.921c-3.405 0-5.521 2.081-5.521 5.431 0 3.478 1.969 5.168 6.018 5.168 1.282 0 2.472-.11 3.982-.376V1.508h-2.144v4.854c0 .232-.107.452-.292.594s-.425.189-.648.132C9.954 6.966 9.576 6.921 9.021 6.921zM9.353 16.06c-2.277 0-3.637-1.413-3.637-3.78 0-2.404 1.399-3.897 3.653-3.9.001 0 .002 0 .003 0C9.37 8.376 9.442 8.378 9.449 8.378c.483 0 .97.081 1.406.234.3.105.501.389.501.708v5.895c0 .375-.276.692-.647.743C10.168 16.032 9.801 16.06 9.353 16.06zM9.376 9.879c-1.434 0-2.16.808-2.16 2.4 0 1.556.679 2.28 2.137 2.28.177 0 .336-.005.504-.017V9.907C9.714 9.887 9.568 9.886 9.423 9.878 9.407 9.879 9.392 9.879 9.376 9.879zM20.25 5.289h-3.581c-.414 0-.75-.336-.75-.75V.762c0-.414.336-.75.75-.75h3.581c.414 0 .75.336.75.75v3.777C21 4.953 20.664 5.289 20.25 5.289zM17.419 3.789H19.5V1.512h-2.081V3.789z"></path></svg>